<svg width="819" height="813" viewBox="0 0 819 813" fill="none" xmlns="http://www.w3.org/2000/svg">
<g id="No Upcoming Trips">
<g id="Group 3">
<mask id="mask0_74_19792" style="mask-type:luminance" maskUnits="userSpaceOnUse" x="138" y="209" width="575" height="379">
<path id="Clip 2" fill-rule="evenodd" clip-rule="evenodd" d="M247.162 317.542L179.12 337.052C170.279 339.588 165.128 348.916 167.671 357.786C170.214 366.655 179.526 371.837 188.367 369.302L222.995 359.372L233.143 356.462C241.984 353.927 251.297 359.111 253.84 367.98C255.111 372.413 254.457 376.972 252.378 380.72C250.315 384.478 246.807 387.45 242.391 388.716L220.742 394.924L208.789 398.352L150.469 415.075C141.628 417.61 136.477 426.941 139.02 435.808C141.562 444.675 150.875 449.859 159.716 447.324L201.467 435.352C197.385 468.684 199.781 503.383 209.628 537.724C213.2 550.182 217.632 562.163 222.831 573.621C225.002 578.408 227.314 583.109 229.761 587.713C258.751 574.364 289.844 561.397 322.643 549.036L325.832 550.624L327.437 547.244C366.879 532.526 408.744 518.706 452.419 506.182C545.214 479.574 634.218 462.242 712.236 454.111C711.529 440.844 709.786 427.485 706.944 414.13C705.695 408.206 704.22 402.289 702.528 396.387C663.369 259.823 521.293 180.763 385.178 219.793C327.166 236.428 279.614 271.827 247.162 317.542Z" fill="white"/>
</mask>
<g mask="url(#mask0_74_19792)">
<path id="Fill 1" fill-rule="evenodd" clip-rule="evenodd" d="M179.042 619.721L733.683 460.68L640.011 134.005L85.3696 293.046L179.042 619.721Z" fill="#F1F2F7"/>
</g>
</g>
<g id="Group 6">
<mask id="mask1_74_19792" style="mask-type:luminance" maskUnits="userSpaceOnUse" x="79" y="427" width="45" height="38">
<path id="Clip 5" fill-rule="evenodd" clip-rule="evenodd" d="M91.7158 431.115C82.7617 433.683 77.5596 443.189 80.1535 452.235C82.7473 461.281 92.1963 466.585 101.15 464.018L110.892 461.225C119.848 458.656 125.05 449.15 122.457 440.105C119.863 431.059 110.414 425.754 101.457 428.322L91.7158 431.115Z" fill="white"/>
</mask>
<g mask="url(#mask1_74_19792)">
<path id="Fill 4" fill-rule="evenodd" clip-rule="evenodd" d="M76.4923 483.807L142.297 464.937L126.124 408.533L60.3186 427.402L76.4923 483.807Z" fill="#F1F2F7"/>
</g>
</g>
<g id="Group 9">
<mask id="mask2_74_19792" style="mask-type:luminance" maskUnits="userSpaceOnUse" x="229" y="454" width="553" height="270">
<path id="Clip 8" fill-rule="evenodd" clip-rule="evenodd" d="M327.176 547.671L325.564 551.036L322.378 549.462C289.584 561.803 258.492 574.739 229.5 588.061C284.985 692.408 407.835 747.414 526.305 713.444C581.776 697.537 627.716 664.572 660.062 621.909L703.909 609.336C712.746 606.802 717.909 597.516 715.382 588.705C714.121 584.306 711.156 580.807 707.415 578.748C703.677 576.674 699.131 576.024 694.72 577.289L675.65 582.757C666.811 585.292 657.512 580.155 654.985 571.342C653.723 566.94 654.383 562.404 656.465 558.674C658.536 554.934 662.047 551.976 666.461 550.71L769.1 521.279C777.939 518.744 783.101 509.461 780.573 500.646C779.311 496.244 776.347 492.747 772.606 490.689C768.858 488.617 764.331 487.962 759.91 489.23L709.581 503.661C711.914 487.536 712.713 471.075 711.854 454.466C633.877 462.676 544.907 480.047 452.134 506.649C408.47 519.169 366.609 532.976 327.176 547.671Z" fill="white"/>
</mask>
<g mask="url(#mask2_74_19792)">
<path id="Fill 7" fill-rule="evenodd" clip-rule="evenodd" d="M276.893 797.68L832.758 638.288L765.592 404.05L209.726 563.442L276.893 797.68Z" fill="#E8EBF2"/>
</g>
</g>
<g id="Group 12">
<mask id="mask3_74_19792" style="mask-type:luminance" maskUnits="userSpaceOnUse" x="326" y="406" width="385" height="142">
<path id="Clip 11" fill-rule="evenodd" clip-rule="evenodd" d="M663.493 448.515L632.159 432.887L611.258 460.21L595.73 448.066L556.189 476.001L450.572 489.69L396.393 522.806C414.211 517.045 432.403 511.496 450.924 506.185C543.594 479.612 632.527 462.456 710.52 454.604C709.735 441.1 707.923 427.499 705.007 413.896L693.661 406.027L663.493 448.515ZM326.14 547.29C348.792 538.795 372.248 530.61 396.396 522.805L344.799 506.907L326.14 547.29Z" fill="white"/>
</mask>
<g mask="url(#mask3_74_19792)">
<path id="Fill 10" fill-rule="evenodd" clip-rule="evenodd" d="M322.406 578.613L731.336 461.354L710.445 388.498L301.515 505.757L322.406 578.613Z" fill="#E0E2EE"/>
</g>
</g>
<g id="Group 15">
<mask id="mask4_74_19792" style="mask-type:luminance" maskUnits="userSpaceOnUse" x="321" y="547" width="6" height="4">
<path id="Clip 14" fill-rule="evenodd" clip-rule="evenodd" d="M321.463 548.727L324.461 550.047L326.066 547.041C324.526 547.594 322.986 548.158 321.463 548.727Z" fill="white"/>
</mask>
<g mask="url(#mask4_74_19792)">
<path id="Fill 13" fill-rule="evenodd" clip-rule="evenodd" d="M313.661 565.859L341.863 557.772L334.45 531.92L306.248 540.007L313.661 565.859Z" fill="#F1F2F7"/>
</g>
</g>
<g id="Group 18">
<mask id="mask5_74_19792" style="mask-type:luminance" maskUnits="userSpaceOnUse" x="221" y="519" width="101" height="69">
<path id="Clip 17" fill-rule="evenodd" clip-rule="evenodd" d="M221.758 573.562C223.933 578.359 226.247 583.067 228.691 587.679C257.669 574.326 288.752 561.357 321.537 548.995L262.486 519.49L221.758 573.562Z" fill="white"/>
</mask>
<g mask="url(#mask5_74_19792)">
<path id="Fill 16" fill-rule="evenodd" clip-rule="evenodd" d="M217.647 603.564L339.856 568.521L317.617 490.965L195.408 526.008L217.647 603.564Z" fill="#E0E2EE"/>
</g>
</g>
<g id="Group 21">
<mask id="mask6_74_19792" style="mask-type:luminance" maskUnits="userSpaceOnUse" x="407" y="574" width="184" height="56">
<path id="Clip 20" fill-rule="evenodd" clip-rule="evenodd" d="M407.233 628.601C408.535 633.142 450.628 625.06 501.251 610.544C551.871 596.029 591.851 580.577 590.549 576.036C589.247 571.496 547.154 579.577 496.534 594.093C445.911 608.608 405.931 624.061 407.233 628.601Z" fill="white"/>
</mask>
<g mask="url(#mask6_74_19792)">
<path id="Fill 19" fill-rule="evenodd" clip-rule="evenodd" d="M401.213 651.946L608.028 592.643L596.572 552.69L389.756 611.993L401.213 651.946Z" fill="#D8DBEA"/>
</g>
</g>
<g id="Group 24">
<mask id="mask7_74_19792" style="mask-type:luminance" maskUnits="userSpaceOnUse" x="730" y="561" width="35" height="35">
<path id="Clip 23" fill-rule="evenodd" clip-rule="evenodd" d="M730.776 583.597C733.371 592.645 742.897 597.925 751.945 595.331C760.993 592.736 766.273 583.21 763.679 574.162C761.085 565.116 751.558 559.834 742.51 562.428C733.462 565.023 728.182 574.551 730.776 583.597Z" fill="white"/>
</mask>
<g mask="url(#mask7_74_19792)">
<path id="Fill 22" fill-rule="evenodd" clip-rule="evenodd" d="M727.115 615.169L783.519 598.995L767.346 542.591L710.941 558.764L727.115 615.169Z" fill="#E1E3EF"/>
</g>
</g>
<g id="Group 47">
<path id="Fill 25" fill-rule="evenodd" clip-rule="evenodd" d="M439.195 403.279C431.543 405.474 423.559 401.048 421.365 393.396C419.171 385.746 423.597 377.765 431.25 375.571C438.902 373.377 446.885 377.8 449.078 385.449C451.272 393.102 446.847 401.085 439.195 403.279ZM429.606 369.834C418.786 372.936 412.527 384.223 415.63 395.043C418.734 405.868 430.022 412.123 440.842 409.02C451.663 405.918 457.923 394.631 454.819 383.806C451.717 372.986 440.426 366.731 429.606 369.834Z" fill="#D8DBEA"/>
<path id="Fill 27" fill-rule="evenodd" clip-rule="evenodd" d="M541.001 557.896L434.799 588.349C424.223 591.381 413.186 585.268 410.153 574.69L382.148 477.026C371.214 438.894 393.469 398.749 431.598 387.815L437.446 386.139C475.58 375.204 515.722 397.457 526.656 435.589L554.661 533.253C557.694 543.831 551.579 554.863 541.001 557.896Z" fill="#D8DBEA"/>
<path id="Fill 29" fill-rule="evenodd" clip-rule="evenodd" d="M562.184 526.641L561.145 526.939C556.929 528.148 552.492 525.687 551.284 521.473L535.663 466.996C534.454 462.78 536.913 458.343 541.129 457.134L551.519 454.155C555.733 452.947 560.169 455.406 561.378 459.622L574.318 504.748C577.001 514.106 571.54 523.958 562.184 526.641Z" fill="url(#paint0_linear_74_19792)"/>
<path id="Fill 31" fill-rule="evenodd" clip-rule="evenodd" d="M401.31 572.771L400.271 573.069C390.91 575.753 381.058 570.291 378.374 560.933L365.435 515.807C364.226 511.591 366.685 507.155 370.901 505.946L381.293 502.966C385.507 501.758 389.944 504.217 391.153 508.433L406.774 562.91C407.982 567.124 405.523 571.562 401.31 572.771Z" fill="url(#paint1_linear_74_19792)"/>
<path id="Fill 33" fill-rule="evenodd" clip-rule="evenodd" d="M525.653 533.772L483.339 561.842L432.579 560.461L423.457 528.649L516.531 501.96L525.653 533.772Z" fill="#BEC0D6"/>
<path id="Fill 35" fill-rule="evenodd" clip-rule="evenodd" d="M453.838 563.524L452.279 566.327C450.983 568.654 448.045 569.497 445.71 568.21L442.905 566.659L437.071 546.314L448.004 543.179L453.838 563.524Z" fill="url(#paint2_linear_74_19792)"/>
<path id="Fill 37" fill-rule="evenodd" clip-rule="evenodd" d="M449.551 560.878C449.901 562.1 449.195 563.371 447.975 563.72C446.753 564.071 445.48 563.368 445.13 562.145C444.78 560.923 445.486 559.653 446.708 559.302C447.928 558.952 449.2 559.656 449.551 560.878Z" fill="#F7FFF6"/>
<path id="Fill 39" fill-rule="evenodd" clip-rule="evenodd" d="M516.296 545.614L514.736 548.417C513.44 550.744 510.502 551.587 508.168 550.3L505.363 548.749L499.529 528.404L510.462 525.269L516.296 545.614Z" fill="url(#paint3_linear_74_19792)"/>
<path id="Fill 41" fill-rule="evenodd" clip-rule="evenodd" d="M512.008 542.968C512.358 544.19 511.652 545.461 510.432 545.811C509.21 546.161 507.937 545.458 507.587 544.236C507.237 543.014 507.943 541.743 509.165 541.393C510.385 541.043 511.657 541.746 512.008 542.968Z" fill="#F7FFF6"/>
<path id="Fill 43" fill-rule="evenodd" clip-rule="evenodd" d="M520.742 441.162L523.713 451.521L529.88 473.028L390.358 449.45C392.535 426.265 408.658 405.58 432.294 398.803L442.679 395.825C473.49 386.99 511.9 410.325 520.742 441.162Z" fill="white"/>
<path id="Fill 45" fill-rule="evenodd" clip-rule="evenodd" d="M399.62 481.754L396.65 471.395L390.483 449.888L530.006 473.469C527.83 496.65 511.707 517.335 488.069 524.113L477.686 527.09C446.873 535.926 408.463 512.591 399.62 481.754Z" fill="url(#paint4_linear_74_19792)"/>
</g>
<g id="Bee">
<path id="Stroke 3" d="M415.155 170.504C335.72 200.739 325.558 278.228 361.588 311.367C387.011 334.748 427.302 364.645 479.302 339.792C531.299 314.937 521.404 263.056 490.66 264.429C459.916 265.804 366.612 327.271 399.444 398.049C423.137 449.116 500.037 443.743 500.037 443.743" stroke="#D7DAE9" stroke-width="2" stroke-dasharray="7"/>
<path id="Fill 5" fill-rule="evenodd" clip-rule="evenodd" d="M450.083 114.708C450.083 114.708 453.01 80.8892 450.841 68.6821C449.711 62.3022 434.501 47.9993 427.062 67.3971C419.622 86.7948 430.712 104.783 450.083 114.708Z" fill="#D8DBEA"/>
<path id="Fill 7_2" fill-rule="evenodd" clip-rule="evenodd" d="M399.173 93.3895C384.181 92.6866 379.028 98.0639 378.454 106.012C377.879 113.963 385.488 126.602 406.996 123.813C428.505 121.024 448.907 115.044 448.907 115.044C448.907 115.044 414.164 94.0923 399.173 93.3895Z" fill="#D8DBEA"/>
<path id="Fill 9" fill-rule="evenodd" clip-rule="evenodd" d="M449.498 121.409C449.443 120.046 449.503 118.708 449.618 117.383C447.21 118.505 444.803 119.801 442.437 121.3C439.869 122.924 437.561 124.75 435.455 126.687C434.965 129.011 434.718 131.416 434.82 133.892C435.444 149.136 447.738 161.157 462.823 161.922C464.227 161.2 465.623 160.431 466.995 159.564C470.827 157.139 474.221 154.411 477.17 151.531C462.068 149.492 450.136 137.019 449.498 121.409Z" fill="#D8DBEA"/>
<path id="Fill 11" fill-rule="evenodd" clip-rule="evenodd" d="M432.017 134.465C431.941 132.963 432 131.489 432.117 130.032C422.416 141.053 419.149 154.777 422.222 161.353C415.564 166.794 411.516 170.93 411.516 170.93C411.516 170.93 417.121 168.851 425.009 164.853C431.355 170.105 445.006 170.926 458.263 165.427C444.005 162.566 432.806 149.963 432.017 134.465Z" fill="#D8DBEA"/>
<path id="Fill 13_2" fill-rule="evenodd" clip-rule="evenodd" d="M472.851 128.346C469.487 128.494 466.628 125.891 466.478 122.507C466.332 119.145 468.955 116.283 472.317 116.136C475.697 115.99 478.54 118.61 478.689 121.974C478.836 125.357 476.234 128.197 472.851 128.346ZM485.432 120.161C480.382 112.112 467.434 110.921 454.137 116.413C453.953 117.937 453.875 119.512 453.953 121.097C454.628 135 465.453 146.076 478.743 147.183C486.921 137.951 489.954 127.331 485.432 120.161Z" fill="#D8DBEA"/>
</g>
</g>
<defs>
<linearGradient id="paint0_linear_74_19792" x1="536.315" y1="420.742" x2="495.813" y2="450.411" gradientUnits="userSpaceOnUse">
<stop stop-color="#FF8960"/>
<stop offset="1" stop-color="#FF62A5"/>
</linearGradient>
<linearGradient id="paint1_linear_74_19792" x1="366.088" y1="469.554" x2="325.584" y2="499.225" gradientUnits="userSpaceOnUse">
<stop stop-color="#FF8960"/>
<stop offset="1" stop-color="#FF62A5"/>
</linearGradient>
<linearGradient id="paint2_linear_74_19792" x1="439.114" y1="532.808" x2="423.412" y2="546.268" gradientUnits="userSpaceOnUse">
<stop stop-color="#FF8960"/>
<stop offset="1" stop-color="#FF62A5"/>
</linearGradient>
<linearGradient id="paint3_linear_74_19792" x1="501.572" y1="514.898" x2="485.869" y2="528.358" gradientUnits="userSpaceOnUse">
<stop stop-color="#FF8960"/>
<stop offset="1" stop-color="#FF62A5"/>
</linearGradient>
<linearGradient id="paint4_linear_74_19792" x1="438.28" y1="385.079" x2="380.985" y2="529.854" gradientUnits="userSpaceOnUse">
<stop stop-color="#FF8960"/>
<stop offset="1" stop-color="#FF62A5"/>
</linearGradient>
</defs>
</svg>
