<svg width="223" height="399" viewBox="0 0 223 399" fill="none" xmlns="http://www.w3.org/2000/svg">
<path d="M8.5625 1.25V19.8125H36V1.25H43.75V48H36V27.5H0.875V1.25H8.5625ZM95.075 0.4375C98.3042 0.4375 101.721 0.552083 105.325 0.78125C108.929 1.01042 112.679 1.45833 116.575 2.125V46.3125C112.679 46.9792 108.94 47.4271 105.356 47.6562C101.773 47.8854 98.4083 48 95.2625 48C92.0333 48 88.6271 47.8854 85.0437 47.6562C81.4604 47.4271 77.7 46.9792 73.7625 46.3125V2.125C77.7 1.45833 81.45 1.01042 85.0125 0.78125C88.575 0.552083 91.9292 0.4375 95.075 0.4375ZM95.1375 40.9375C95.7625 40.9375 96.3875 40.9375 97.0125 40.9375C97.6375 40.9375 98.2625 40.9167 98.8875 40.875C100.908 40.8125 102.721 40.7083 104.325 40.5625C105.95 40.4167 107.471 40.25 108.887 40.0625V8.4375C108.012 8.29167 107.002 8.16667 105.856 8.0625C104.731 7.9375 103.554 7.83333 102.325 7.75C101.117 7.66667 99.8875 7.60417 98.6375 7.5625C97.3875 7.52083 96.2208 7.5 95.1375 7.5C93.2208 7.5 91.5646 7.53125 90.1687 7.59375C88.7729 7.65625 87.5437 7.73958 86.4812 7.84375C85.4187 7.92708 84.4917 8.03125 83.7 8.15625C82.9083 8.26042 82.1792 8.35417 81.5125 8.4375V40.0625C82.8667 40.25 84.3667 40.4167 86.0125 40.5625C87.6792 40.7083 89.4917 40.8125 91.45 40.875C92.075 40.9167 92.6896 40.9375 93.2937 40.9375C93.8979 40.9375 94.5125 40.9375 95.1375 40.9375ZM153.087 1.25V19.8125H180.525V1.25H188.275V48H180.525V27.5H145.4V1.25H153.087Z" fill="#4B4B4B"/>
<path d="M37.6868 363.015C44.4868 345.815 59.8535 346.848 66.6868 349.515C80.8535 352.682 115.848 355.515 102.687 381.015C94.6868 396.515 79.8963 400.504 64.1868 396.515C48.0189 392.41 30.8868 380.215 37.6868 363.015Z" fill="#1F1E1E" stroke="black" stroke-width="2"/>
<path d="M161.657 362C153.157 348 130.99 351.333 124.157 354C109.99 357.167 84.9959 349.5 98.1572 375C106.157 390.5 121.948 396.489 137.657 392.5C153.825 388.395 171.256 377.81 161.657 362Z" fill="#1F1E1E" stroke="black" stroke-width="2"/>
<path d="M42.657 196C34.9903 182.667 21.8884 131.347 40.657 102C68.157 59.0001 120.157 73.5 132.657 90.5C144.159 106.143 159.657 140 139.657 184.5C149.657 175 145.157 181 161.657 151.5C147.196 142.62 149.067 133.875 154.157 127.815C162.957 115.015 181.324 114.167 191.657 124C201.157 149.667 206.957 208 154.157 236C161.357 263.2 159.49 271.333 157.657 272C159.157 296.333 159.757 346.7 150.157 353.5C138.657 368.5 105.657 370 98.657 364C89.157 375 60.657 368 49.657 354.5C42.0387 345.15 39.1171 317.889 38.3616 300.354C37.8487 307.882 34.9681 316.413 26.157 317C14.157 317.8 9.82365 295.333 9.15698 284C10.4903 261.333 9.15697 232 22.657 208.5C27.245 200.514 39.3237 193.333 42.657 196Z" fill="#AC2F2F" stroke="black" stroke-width="2"/>
<path d="M80.157 190C81.0767 190.08 81.9075 190.154 82.657 190.222M82.657 190.222C89.404 190.838 89.557 191 88.657 191L85.657 190.611L84.157 190.417M82.657 190.222L84.157 190.417M84.157 190.417C81.657 205.611 77.857 238.6 82.657 249" stroke="black" stroke-width="2"/>
<path d="M133.054 140.783C128.117 170.374 105.187 190.784 82.2032 186.949C59.2191 183.115 44.1578 156.365 49.0949 126.775C54.032 97.1846 76.962 76.774 99.9461 80.6089C122.93 84.4438 137.992 111.193 133.054 140.783Z" fill="#4B4B4B" stroke="black" stroke-width="2"/>
<rect x="86.1831" y="91.7535" width="30.9834" height="28" transform="rotate(21.0911 86.1831 91.7535)" stroke="white" stroke-width="3"/>
<path d="M38.657 259.5V250C45.457 246.8 141.78 251.5 157.78 262.5C158.28 262 156.857 262.8 157.657 272C126.157 257.889 76.657 259.833 38.657 259.5Z" fill="black" stroke="black" stroke-width="2"/>
<path d="M133.657 141C132.49 151.333 125.857 175.5 108.657 189.5" stroke="black" stroke-width="2" stroke-linecap="round"/>
<path d="M49.657 124C45.3236 138.833 44.357 173.2 75.157 192" stroke="black" stroke-width="2" stroke-linecap="round"/>
<path d="M49.657 118C65.8236 129.333 105.257 148.9 133.657 136.5" stroke="black" stroke-width="2" stroke-linecap="round"/>
<path d="M86.657 134.5C81.8237 145.167 73.857 170.4 80.657 186" stroke="black" stroke-width="2" stroke-linecap="round"/>
<path d="M76.657 285.5C82.3236 289 97.657 293.9 113.657 285.5" stroke="black" stroke-width="2" stroke-linecap="round"/>
<path d="M94.5708 290C92.272 302.517 89.571 334.842 97.157 364" stroke="black" stroke-width="2" stroke-linecap="round"/>
<path d="M191.893 93.944L188.885 94.84C186.922 92.1093 185.941 89.848 185.941 88.056C185.941 85.9227 187.52 83.832 190.677 81.784C191.957 80.9307 193.237 80.056 194.517 79.16C195.797 78.264 196.885 77.176 197.781 75.896C198.72 74.616 199.189 73.08 199.189 71.288C199.189 69.4533 198.421 68.024 196.885 67C195.392 65.976 193.642 65.464 191.637 65.464C189.632 65.464 187.989 65.8053 186.709 66.488C186.368 66.6587 186.112 67.064 185.941 67.704C185.77 68.344 185.578 69.8373 185.365 72.184L181.909 71.8C181.568 70.4773 181.397 69.0907 181.397 67.64C181.397 66.1467 181.418 65.1867 181.461 64.76C182.698 64.0347 184.384 63.416 186.517 62.904C188.65 62.3493 190.72 62.072 192.725 62.072C196.224 62.072 199.104 62.9467 201.365 64.696C203.626 66.4027 204.757 68.856 204.757 72.056C204.757 73.72 204.416 75.256 203.733 76.664C203.093 78.072 202.261 79.224 201.237 80.12C200.256 81.016 199.168 81.912 197.973 82.808C196.821 83.704 195.754 84.472 194.773 85.112C192.426 86.648 191.253 88.312 191.253 90.104C191.253 90.9573 191.466 92.2373 191.893 93.944ZM194.325 103.928C194.325 104.995 193.984 105.869 193.301 106.552C192.661 107.235 191.786 107.576 190.677 107.576C189.61 107.576 188.714 107.277 187.989 106.68C187.306 106.04 186.965 105.187 186.965 104.12C186.965 103.053 187.285 102.221 187.925 101.624C188.608 100.984 189.546 100.664 190.741 100.664C193.13 100.664 194.325 101.752 194.325 103.928Z" fill="#1F1E1E"/>
<path d="M206.739 110.328L205.893 110.58C205.341 109.812 205.065 109.176 205.065 108.672C205.065 108.072 205.509 107.484 206.397 106.908C206.757 106.668 207.117 106.422 207.477 106.17C207.837 105.918 208.143 105.612 208.395 105.252C208.659 104.892 208.791 104.46 208.791 103.956C208.791 103.44 208.575 103.038 208.143 102.75C207.723 102.462 207.231 102.318 206.667 102.318C206.103 102.318 205.641 102.414 205.281 102.606C205.185 102.654 205.113 102.768 205.065 102.948C205.017 103.128 204.963 103.548 204.903 104.208L203.931 104.1C203.835 103.728 203.787 103.338 203.787 102.93C203.787 102.51 203.793 102.24 203.805 102.12C204.153 101.916 204.627 101.742 205.227 101.598C205.827 101.442 206.409 101.364 206.973 101.364C207.957 101.364 208.767 101.61 209.403 102.102C210.039 102.582 210.357 103.272 210.357 104.172C210.357 104.64 210.261 105.072 210.069 105.468C209.889 105.864 209.655 106.188 209.367 106.44C209.091 106.692 208.785 106.944 208.449 107.196C208.125 107.448 207.825 107.664 207.549 107.844C206.889 108.276 206.559 108.744 206.559 109.248C206.559 109.488 206.619 109.848 206.739 110.328ZM207.423 113.136C207.423 113.436 207.327 113.682 207.135 113.874C206.955 114.066 206.709 114.162 206.397 114.162C206.097 114.162 205.845 114.078 205.641 113.91C205.449 113.73 205.353 113.49 205.353 113.19C205.353 112.89 205.443 112.656 205.623 112.488C205.815 112.308 206.079 112.218 206.415 112.218C207.087 112.218 207.423 112.524 207.423 113.136Z" fill="black"/>
<path d="M215.933 94.104L214.805 94.44C214.069 93.416 213.701 92.568 213.701 91.896C213.701 91.096 214.293 90.312 215.477 89.544C215.957 89.224 216.437 88.896 216.917 88.56C217.397 88.224 217.805 87.816 218.141 87.336C218.493 86.856 218.669 86.28 218.669 85.608C218.669 84.92 218.381 84.384 217.805 84C217.245 83.616 216.589 83.424 215.837 83.424C215.085 83.424 214.469 83.552 213.989 83.808C213.861 83.872 213.765 84.024 213.701 84.264C213.637 84.504 213.565 85.064 213.485 85.944L212.189 85.8C212.061 85.304 211.997 84.784 211.997 84.24C211.997 83.68 212.005 83.32 212.021 83.16C212.485 82.888 213.117 82.656 213.917 82.464C214.717 82.256 215.493 82.152 216.245 82.152C217.557 82.152 218.637 82.48 219.485 83.136C220.333 83.776 220.757 84.696 220.757 85.896C220.757 86.52 220.629 87.096 220.373 87.624C220.133 88.152 219.821 88.584 219.437 88.92C219.069 89.256 218.661 89.592 218.213 89.928C217.781 90.264 217.381 90.552 217.013 90.792C216.133 91.368 215.693 91.992 215.693 92.664C215.693 92.984 215.773 93.464 215.933 94.104ZM216.845 97.848C216.845 98.248 216.717 98.576 216.461 98.832C216.221 99.088 215.893 99.216 215.477 99.216C215.077 99.216 214.741 99.104 214.469 98.88C214.213 98.64 214.085 98.32 214.085 97.92C214.085 97.52 214.205 97.208 214.445 96.984C214.701 96.744 215.053 96.624 215.501 96.624C216.397 96.624 216.845 97.032 216.845 97.848Z" fill="black"/>
<path d="M48.7804 211C42.993 224.008 32.4929 260.735 38.2804 295" stroke="black" stroke-width="2" stroke-linecap="round"/>
<path d="M159.292 147.629C163.759 150.409 183.488 136.874 192.794 129.759C200.28 117 137.465 99.4796 152.185 121.321C132.896 132.241 153.708 144.155 159.292 147.629Z" fill="black" stroke="black" stroke-width="2" stroke-linecap="round"/>
<path d="M9.7804 286C10.4742 282.223 37.3473 283.27 38.2804 294C39.2804 305.5 37.9841 314.516 27.7804 316C14.3178 317.958 8.9131 290.722 9.7804 286Z" fill="black" stroke="black" stroke-width="2" stroke-linecap="round"/>
</svg>
